{
	"asset":{
		"generator":"Khronos glTF Blender I/O v4.2.83",
		"version":"2.0"
	},
	"scene":0,
	"scenes":[
		{
			"name":"Scene",
			"nodes":[
				0,
				1,
				2,
				3,
				4,
				5,
				6,
				7,
				8,
				9,
				10,
				11,
				12,
				13,
				14,
				15,
				16,
				17,
				18,
				19,
				20,
				21,
				22,
				23,
				24,
				25,
				26,
				27,
				28,
				29,
				30,
				31,
				32,
				33,
				34,
				35
			]
		}
	],
	"nodes":[
		{
			"mesh":0,
			"name":"Cube",
			"rotation":[
				0,
				-1,
				0,
				4.371138828673793e-08
			],
			"scale":[
				-0.6021561622619629,
				-0.02655307948589325,
				-0.5003182291984558
			],
			"translation":[
				0.8931257128715515,
				3.897064685821533,
				-1.8003538846969604
			]
		},
		{
			"mesh":1,
			"name":"Cube.001",
			"rotation":[
				0,
				0,
				-1,
				0
			],
			"scale":[
				-0.311464786529541,
				-1,
				-0.053916048258543015
			],
			"translation":[
				0.8931257128715515,
				4.169473171234131,
				-2.107113838195801
			]
		},
		{
			"mesh":2,
			"name":"PC",
			"translation":[
				-2.841279983520508,
				6.373013496398926,
				0.057651787996292114
			]
		},
		{
			"mesh":3,
			"name":"Catenary",
			"translation":[
				-0.22026880085468292,
				4.544222831726074,
				-2.4969418048858643
			]
		},
		{
			"mesh":4,
			"name":"Catenary.001",
			"translation":[
				0.5954421758651733,
				4.278139114379883,
				-1.66681969165802
			]
		},
		{
			"mesh":5,
			"name":"Catenary.002",
			"translation":[
				-0.6190962791442871,
				4.15953254699707,
				-1.8212125301361084
			]
		},
		{
			"mesh":6,
			"name":"Cube.004",
			"scale":[
				0.09132399410009384,
				0.0306454636156559,
				0.06692858785390854
			],
			"translation":[
				-2.0868849754333496,
				4.556015968322754,
				-2.8493173122406006
			]
		},
		{
			"mesh":7,
			"name":"Cube.005",
			"rotation":[
				1,
				0,
				0,
				0
			],
			"scale":[
				-0.02408621832728386,
				-0.052590832114219666,
				-0.02632427029311657
			],
			"translation":[
				-1.9655649662017822,
				5.206962585449219,
				-2.827815055847168
			]
		},
		{
			"mesh":8,
			"name":"Cube.006",
			"rotation":[
				1,
				0,
				0,
				0
			],
			"scale":[
				-0.02408621832728386,
				-0.052590832114219666,
				-0.02632427029311657
			],
			"translation":[
				-1.8978031873703003,
				5.206962585449219,
				-2.827815055847168
			]
		},
		{
			"mesh":9,
			"name":"Cube.003",
			"scale":[
				1.5734925270080566,
				0.046582937240600586,
				0.5693599581718445
			],
			"translation":[
				0.6938296556472778,
				3.9160614013671875,
				-0.25745996832847595
			]
		},
		{
			"mesh":10,
			"name":"Keys",
			"rotation":[
				0,
				-0.7071068286895752,
				0,
				0.7071068286895752
			],
			"scale":[
				0.059947431087493896,
				0.01741226203739643,
				0.15637297928333282
			],
			"translation":[
				1.1794296503067017,
				3.974680185317993,
				-0.30163657665252686
			]
		},
		{
			"mesh":11,
			"name":"Cube.038",
			"scale":[
				0.10115019232034683,
				0.038827084004879,
				0.02801157347857952
			],
			"translation":[
				1.4838650226593018,
				4.743027210235596,
				-2.1547129154205322
			]
		},
		{
			"mesh":12,
			"name":"Cube.039",
			"scale":[
				0.7051541805267334,
				0.14507585763931274,
				0.800000011920929
			],
			"translation":[
				1.1952972412109375,
				0.02379090152680874,
				-2.063981056213379
			]
		},
		{
			"mesh":13,
			"name":"Cube.040",
			"scale":[
				0.8138769268989563,
				1,
				1
			],
			"translation":[
				1.1952972412109375,
				0.028697609901428223,
				-2.6412672996520996
			]
		},
		{
			"mesh":14,
			"name":"Catenary.003",
			"translation":[
				0.6606393456459045,
				2.325324535369873,
				-2.4539971351623535
			]
		},
		{
			"mesh":15,
			"name":"Catenary.004",
			"translation":[
				-0.5257593989372253,
				2.1996984481811523,
				-2.7871928215026855
			]
		},
		{
			"mesh":16,
			"name":"Cube.002",
			"scale":[
				1,
				1,
				0.7374880909919739
			],
			"translation":[
				-2.0422158241271973,
				6.279483795166016,
				-2.816899061203003
			]
		},
		{
			"mesh":17,
			"name":"Cube.041",
			"rotation":[
				-0.7071068286895752,
				0,
				0,
				0.7071068286895752
			],
			"scale":[
				1,
				0.880478024482727,
				0.7587982416152954
			],
			"translation":[
				0.313064843416214,
				4.779253959655762,
				-2.1466474533081055
			]
		},
		{
			"mesh":18,
			"name":"Mesh1.0",
			"rotation":[
				0,
				-0.11968178302049637,
				0,
				0.9928123354911804
			],
			"scale":[
				0.6032041311264038,
				0.603204071521759,
				0.6032041311264038
			],
			"translation":[
				4.315248966217041,
				4.431124210357666,
				-1.2724113464355469
			]
		},
		{
			"mesh":19,
			"name":"Monitor1",
			"scale":[
				2.000584363937378,
				1,
				0.06927256286144257
			],
			"translation":[
				0.8934862017631531,
				5.382960319519043,
				-1.9874199628829956
			]
		},
		{
			"mesh":20,
			"name":"Mouse",
			"scale":[
				0.248016819357872,
				0.10329784452915192,
				0.3548640012741089
			],
			"translation":[
				3.095349073410034,
				3.9738080501556396,
				-0.18896165490150452
			]
		},
		{
			"mesh":21,
			"name":"Screen",
			"scale":[
				2.000584363937378,
				1,
				0.06927256286144257
			],
			"translation":[
				0.8934862017631531,
				5.382960319519043,
				-1.9582574367523193
			]
		},
		{
			"mesh":22,
			"name":"Cube.046",
			"scale":[
				4.47225284576416,
				0.08442872762680054,
				2.446542978286743
			],
			"translation":[
				0.3869950771331787,
				3.782485008239746,
				-0.8819185495376587
			]
		},
		{
			"mesh":23,
			"name":"Desklamp",
			"rotation":[
				0.9654761552810669,
				-0.1274816244840622,
				-0.2252110242843628,
				0.02973625436425209
			],
			"scale":[
				0.37181904911994934,
				0.37181904911994934,
				0.37181904911994934
			],
			"translation":[
				1.5606262683868408,
				6.724664211273193,
				-0.9865601658821106
			]
		},
		{
			"mesh":24,
			"name":"lightGlass",
			"rotation":[
				0.9654761552810669,
				-0.1274816244840622,
				-0.2252110242843628,
				0.02973625436425209
			],
			"scale":[
				0.37181904911994934,
				0.37181904911994934,
				0.37181904911994934
			],
			"translation":[
				1.5606262683868408,
				6.724664211273193,
				-0.9865601658821106
			]
		},
		{
			"mesh":25,
			"name":"Cylinder.004",
			"rotation":[
				-0.026521803811192513,
				0.3062252998352051,
				-0.14002616703510284,
				0.9412307739257812
			],
			"scale":[
				0.10501375049352646,
				0.10501375049352646,
				0.10501375049352646
			],
			"translation":[
				1.6621630191802979,
				7.127395153045654,
				-1.0222012996673584
			]
		},
		{
			"mesh":26,
			"name":"Cylinder.003",
			"rotation":[
				-0.026521801948547363,
				0.30622532963752747,
				-0.14002615213394165,
				0.9412307739257812
			],
			"scale":[
				0.13168878853321075,
				0.13168877363204956,
				0.13168874382972717
			],
			"translation":[
				1.7099124193191528,
				7.312597274780273,
				-1.0483944416046143
			]
		},
		{
			"mesh":27,
			"name":"Chair",
			"rotation":[
				0,
				-0.8904944658279419,
				0,
				0.4549940824508667
			],
			"scale":[
				1.9728963375091553,
				1.8991315364837646,
				1.8991316556930542
			],
			"translation":[
				2.094390392303467,
				0,
				3.944406032562256
			]
		},
		{
			"mesh":28,
			"name":"Cube.007",
			"scale":[
				0.3013239800930023,
				0.3013239800930023,
				0.3013239800930023
			],
			"translation":[
				0.8649128079414368,
				4.172677993774414,
				0.6965121030807495
			]
		},
		{
			"mesh":29,
			"name":"Cube.008",
			"rotation":[
				1,
				0,
				0,
				0
			],
			"scale":[
				-0.15498539805412292,
				-0.17054784297943115,
				-0.10458468645811081
			],
			"translation":[
				1.2725274562835693,
				4.1723313331604,
				0.6937130093574524
			]
		},
		{
			"mesh":30,
			"name":"Cube.009",
			"scale":[
				0.11324980854988098,
				0.07726754993200302,
				0.07726754993200302
			],
			"translation":[
				0.8669285178184509,
				4.022876739501953,
				0.8551979660987854
			]
		},
		{
			"mesh":31,
			"name":"B\u00e9zierCurve"
		},
		{
			"mesh":32,
			"name":"Cube.010",
			"scale":[
				0.09507398307323456,
				0.08886870741844177,
				0.007397674024105072
			],
			"translation":[
				0.869140625,
				4.203902244567871,
				1.0254608392715454
			]
		},
		{
			"mesh":33,
			"name":"Cube.011",
			"rotation":[
				0,
				-0.23928752541542053,
				0,
				0.9709487557411194
			],
			"scale":[
				0.7382775545120239,
				0.01573925092816353,
				0.10469187796115875
			],
			"translation":[
				4.125277042388916,
				3.871009111404419,
				-0.9542709589004517
			]
		},
		{
			"mesh":34,
			"name":"Vector_8",
			"rotation":[
				0.6840153932571411,
				-0.1792287677526474,
				0.1792287826538086,
				0.6840153932571411
			],
			"scale":[
				38.82353591918945,
				38.82353591918945,
				38.82353591918945
			],
			"translation":[
				4.2309465408325195,
				4.0921149253845215,
				-0.9213224649429321
			]
		},
		{
			"mesh":35,
			"name":"Vector_9",
			"rotation":[
				0.6840153932571411,
				-0.1792287677526474,
				0.1792287826538086,
				0.6840153932571411
			],
			"scale":[
				39.66559600830078,
				39.66559600830078,
				39.66559600830078
			],
			"translation":[
				4.055582523345947,
				4.155272483825684,
				-1.022484302520752
			]
		}
	],
	"materials":[
		{
			"doubleSided":true,
			"name":"Black metallic",
			"pbrMetallicRoughness":{
				"baseColorFactor":[
					0,
					0,
					0,
					1
				],
				"metallicFactor":0.22834646701812744,
				"roughnessFactor":0.8149606585502625
			}
		},
		{
			"doubleSided":true,
			"name":"PC-2",
			"pbrMetallicRoughness":{
				"baseColorTexture":{
					"index":0
				},
				"metallicFactor":0,
				"roughnessFactor":0.5
			}
		},
		{
			"doubleSided":true,
			"name":"Soft Plastic",
			"pbrMetallicRoughness":{
				"baseColorFactor":[
					0.006433609873056412,
					0.006433609873056412,
					0.006433609873056412,
					1
				],
				"metallicFactor":0,
				"roughnessFactor":0.6499999761581421
			}
		},
		{
			"doubleSided":true,
			"name":"Material.004",
			"pbrMetallicRoughness":{
				"baseColorTexture":{
					"index":1
				},
				"metallicFactor":0,
				"roughnessFactor":0.5
			}
		},
		{
			"doubleSided":true,
			"name":"mat",
			"pbrMetallicRoughness":{
				"baseColorFactor":[
					0.04593750089406967,
					0.04593750089406967,
					0.04593750089406967,
					1
				],
				"metallicFactor":0,
				"roughnessFactor":0.5
			}
		},
		{
			"doubleSided":true,
			"name":"26",
			"pbrMetallicRoughness":{
				"baseColorTexture":{
					"index":2
				},
				"metallicFactor":0,
				"roughnessFactor":0.5
			}
		},
		{
			"doubleSided":true,
			"name":"glass"
		},
		{
			"doubleSided":true,
			"name":"wood",
			"pbrMetallicRoughness":{
				"baseColorTexture":{
					"index":3
				},
				"metallicFactor":0
			}
		},
		{
			"doubleSided":true,
			"name":"Chair.001",
			"pbrMetallicRoughness":{
				"baseColorFactor":[
					0.800000011920929,
					0.800000011920929,
					0.800000011920929,
					1
				],
				"metallicFactor":0,
				"roughnessFactor":0.14399999380111694
			}
		},
		{
			"doubleSided":true,
			"name":"Material.001",
			"pbrMetallicRoughness":{
				"baseColorFactor":[
					0.800000011920929,
					0.800000011920929,
					0.800000011920929,
					1
				],
				"metallicFactor":0.5039370059967041,
				"roughnessFactor":0.27952754497528076
			}
		},
		{
			"doubleSided":true,
			"name":"Tea",
			"pbrMetallicRoughness":{
				"baseColorTexture":{
					"index":4
				},
				"metallicFactor":0,
				"roughnessFactor":0.5
			}
		},
		{
			"doubleSided":true,
			"name":"Material.002",
			"pbrMetallicRoughness":{
				"baseColorFactor":[
					0.010329696349799633,
					0.023153357207775116,
					0.08650048077106476,
					1
				],
				"metallicFactor":0,
				"roughnessFactor":0.5
			}
		},
		{
			"doubleSided":true,
			"name":"SVGMat",
			"pbrMetallicRoughness":{
				"baseColorFactor":[
					1,
					1,
					1,
					1
				],
				"metallicFactor":0,
				"roughnessFactor":0.4000000059604645
			}
		},
		{
			"doubleSided":true,
			"name":"SVGMat.001",
			"pbrMetallicRoughness":{
				"baseColorFactor":[
					0.13563333451747894,
					0.5028864741325378,
					0.38642942905426025,
					1
				],
				"metallicFactor":0,
				"roughnessFactor":0.4000000059604645
			}
		}
	],
	"meshes":[
		{
			"name":"Cube.005",
			"primitives":[
				{
					"attributes":{
						"POSITION":0,
						"NORMAL":1,
						"TEXCOORD_0":2
					},
					"indices":3,
					"material":0
				}
			]
		},
		{
			"name":"Cube.006",
			"primitives":[
				{
					"attributes":{
						"POSITION":4,
						"NORMAL":5,
						"TEXCOORD_0":6
					},
					"indices":7,
					"material":0
				}
			]
		},
		{
			"name":"Cube.007",
			"primitives":[
				{
					"attributes":{
						"POSITION":8,
						"NORMAL":9,
						"TEXCOORD_0":10
					},
					"indices":11,
					"material":1
				}
			]
		},
		{
			"name":"Catenary",
			"primitives":[
				{
					"attributes":{
						"POSITION":12,
						"NORMAL":13,
						"TEXCOORD_0":14
					},
					"indices":15,
					"material":2
				}
			]
		},
		{
			"name":"Catenary.001",
			"primitives":[
				{
					"attributes":{
						"POSITION":16,
						"NORMAL":17,
						"TEXCOORD_0":18
					},
					"indices":19,
					"material":2
				}
			]
		},
		{
			"name":"Catenary.002",
			"primitives":[
				{
					"attributes":{
						"POSITION":20,
						"NORMAL":21,
						"TEXCOORD_0":22
					},
					"indices":23,
					"material":2
				}
			]
		},
		{
			"name":"Cube.009",
			"primitives":[
				{
					"attributes":{
						"POSITION":24,
						"NORMAL":25,
						"TEXCOORD_0":26
					},
					"indices":3,
					"material":2
				}
			]
		},
		{
			"name":"Cube.010",
			"primitives":[
				{
					"attributes":{
						"POSITION":27,
						"NORMAL":28,
						"TEXCOORD_0":29
					},
					"indices":3,
					"material":2
				}
			]
		},
		{
			"name":"Cube.011",
			"primitives":[
				{
					"attributes":{
						"POSITION":30,
						"NORMAL":31,
						"TEXCOORD_0":32
					},
					"indices":3,
					"material":2
				}
			]
		},
		{
			"name":"Cube.119",
			"primitives":[
				{
					"attributes":{
						"POSITION":33,
						"NORMAL":34,
						"TEXCOORD_0":35
					},
					"indices":3,
					"material":2
				}
			]
		},
		{
			"name":"Cube.155",
			"primitives":[
				{
					"attributes":{
						"POSITION":36,
						"NORMAL":37,
						"TEXCOORD_0":38
					},
					"indices":39,
					"material":3
				}
			]
		},
		{
			"name":"Cube.156",
			"primitives":[
				{
					"attributes":{
						"POSITION":40,
						"NORMAL":41,
						"TEXCOORD_0":42
					},
					"indices":3,
					"material":2
				}
			]
		},
		{
			"name":"Cube.003",
			"primitives":[
				{
					"attributes":{
						"POSITION":43,
						"NORMAL":44,
						"TEXCOORD_0":45
					},
					"indices":46,
					"material":4
				}
			]
		},
		{
			"name":"Cube.004",
			"primitives":[
				{
					"attributes":{
						"POSITION":47,
						"NORMAL":48,
						"TEXCOORD_0":49
					},
					"indices":50,
					"material":0
				}
			]
		},
		{
			"name":"Catenary.003",
			"primitives":[
				{
					"attributes":{
						"POSITION":51,
						"NORMAL":52,
						"TEXCOORD_0":53
					},
					"indices":54,
					"material":2
				}
			]
		},
		{
			"name":"Catenary.004",
			"primitives":[
				{
					"attributes":{
						"POSITION":55,
						"NORMAL":56,
						"TEXCOORD_0":57
					},
					"indices":54,
					"material":2
				}
			]
		},
		{
			"name":"Cube",
			"primitives":[
				{
					"attributes":{
						"POSITION":58,
						"NORMAL":59,
						"TEXCOORD_0":60
					},
					"indices":61,
					"material":2
				}
			]
		},
		{
			"name":"Cube.008",
			"primitives":[
				{
					"attributes":{
						"POSITION":62,
						"NORMAL":63,
						"TEXCOORD_0":64
					},
					"indices":61,
					"material":2
				}
			]
		},
		{
			"name":"Mesh1",
			"primitives":[
				{
					"attributes":{
						"POSITION":65,
						"NORMAL":66,
						"TEXCOORD_0":67
					},
					"indices":68,
					"material":5
				}
			]
		},
		{
			"name":"Cube.002",
			"primitives":[
				{
					"attributes":{
						"POSITION":69,
						"NORMAL":70,
						"TEXCOORD_0":71
					},
					"indices":72,
					"material":2
				}
			]
		},
		{
			"name":"Cube.039",
			"primitives":[
				{
					"attributes":{
						"POSITION":73,
						"NORMAL":74,
						"TEXCOORD_0":75
					},
					"indices":76,
					"material":2
				}
			]
		},
		{
			"name":"Cube.017",
			"primitives":[
				{
					"attributes":{
						"POSITION":77,
						"NORMAL":78,
						"TEXCOORD_0":79
					},
					"indices":80,
					"material":6
				}
			]
		},
		{
			"name":"Cube.018",
			"primitives":[
				{
					"attributes":{
						"POSITION":81,
						"NORMAL":82,
						"TEXCOORD_0":83
					},
					"indices":84,
					"material":7
				}
			]
		},
		{
			"name":"Circle.001",
			"primitives":[
				{
					"attributes":{
						"POSITION":85,
						"NORMAL":86,
						"TEXCOORD_0":87
					},
					"indices":88,
					"material":4
				},
				{
					"attributes":{
						"POSITION":89,
						"NORMAL":90,
						"TEXCOORD_0":91
					},
					"indices":92,
					"material":2
				},
				{
					"attributes":{
						"POSITION":93,
						"NORMAL":94,
						"TEXCOORD_0":95
					},
					"indices":96,
					"material":0
				}
			]
		},
		{
			"name":"Circle.002",
			"primitives":[
				{
					"attributes":{
						"POSITION":97,
						"NORMAL":98,
						"TEXCOORD_0":99
					},
					"indices":100,
					"material":4
				}
			]
		},
		{
			"name":"Cylinder.007",
			"primitives":[
				{
					"attributes":{
						"POSITION":101,
						"NORMAL":102,
						"TEXCOORD_0":103
					},
					"indices":104
				}
			]
		},
		{
			"name":"Cylinder.006",
			"primitives":[
				{
					"attributes":{
						"POSITION":105,
						"NORMAL":106,
						"TEXCOORD_0":107
					},
					"indices":108
				}
			]
		},
		{
			"name":"Plane.002",
			"primitives":[
				{
					"attributes":{
						"POSITION":109,
						"NORMAL":110,
						"TEXCOORD_0":111
					},
					"indices":112,
					"material":8
				}
			]
		},
		{
			"name":"Cube.001",
			"primitives":[
				{
					"attributes":{
						"POSITION":113,
						"NORMAL":114,
						"TEXCOORD_0":115
					},
					"indices":116,
					"material":9
				}
			]
		},
		{
			"name":"Cube.016",
			"primitives":[
				{
					"attributes":{
						"POSITION":117,
						"NORMAL":118,
						"TEXCOORD_0":119
					},
					"indices":120,
					"material":9
				}
			]
		},
		{
			"name":"Cube.012",
			"primitives":[
				{
					"attributes":{
						"POSITION":121,
						"NORMAL":122,
						"TEXCOORD_0":123
					},
					"indices":124
				}
			]
		},
		{
			"name":"B\u00e9zierCurve",
			"primitives":[
				{
					"attributes":{
						"POSITION":125,
						"NORMAL":126,
						"TEXCOORD_0":127
					},
					"indices":128
				}
			]
		},
		{
			"name":"Cube.014",
			"primitives":[
				{
					"attributes":{
						"POSITION":129,
						"NORMAL":130,
						"TEXCOORD_0":131
					},
					"indices":132,
					"material":10
				}
			]
		},
		{
			"name":"Cube.015",
			"primitives":[
				{
					"attributes":{
						"POSITION":133,
						"NORMAL":134,
						"TEXCOORD_0":135
					},
					"indices":3,
					"material":11
				}
			]
		},
		{
			"name":"Vector_8",
			"primitives":[
				{
					"attributes":{
						"POSITION":136,
						"NORMAL":137,
						"TEXCOORD_0":138
					},
					"indices":139,
					"material":12
				}
			]
		},
		{
			"name":"Vector_9",
			"primitives":[
				{
					"attributes":{
						"POSITION":140,
						"NORMAL":141,
						"TEXCOORD_0":142
					},
					"indices":143,
					"material":13
				}
			]
		}
	],
	"textures":[
		{
			"sampler":0,
			"source":0
		},
		{
			"sampler":0,
			"source":1
		},
		{
			"sampler":0,
			"source":2
		},
		{
			"sampler":1,
			"source":3
		},
		{
			"sampler":0,
			"source":4
		}
	],
	"images":[
		{
			"mimeType":"image/png",
			"name":"PC",
			"uri":"PC.png"
		},
		{
			"mimeType":"image/jpeg",
			"name":"kb500-kbm-01-bk",
			"uri":"kb500-kbm-01-bk.jpg"
		},
		{
			"mimeType":"image/png",
			"name":"Untitled",
			"uri":"Untitled.png"
		},
		{
			"mimeType":"image/png",
			"name":"oak_basecolor",
			"uri":"oak_basecolor.png"
		},
		{
			"mimeType":"image/png",
			"name":"Tea",
			"uri":"Tea.png"
		}
	],
	"accessors":[
		{
			"bufferView":0,
			"componentType":5126,
			"count":24,
			"max":[
				1,
				1,
				1
			],
			"min":[
				-1,
				-1,
				-1
			],
			"type":"VEC3"
		},
		{
			"bufferView":1,
			"componentType":5126,
			"count":24,
			"type":"VEC3"
		},
		{
			"bufferView":2,
			"componentType":5126,
			"count":24,
			"type":"VEC2"
		},
		{
			"bufferView":3,
			"componentType":5123,
			"count":36,
			"type":"SCALAR"
		},
		{
			"bufferView":4,
			"componentType":5126,
			"count":32,
			"max":[
				1,
				0.5531618595123291,
				1
			],
			"min":[
				-1,
				-0.26460886001586914,
				-1
			],
			"type":"VEC3"
		},
		{
			"bufferView":5,
			"componentType":5126,
			"count":32,
			"type":"VEC3"
		},
		{
			"bufferView":6,
			"componentType":5126,
			"count":32,
			"type":"VEC2"
		},
		{
			"bufferView":7,
			"componentType":5123,
			"count":60,
			"type":"SCALAR"
		},
		{
			"bufferView":8,
			"componentType":5126,
			"count":76,
			"max":[
				1.107229471206665,
				0.5476970672607422,
				0.5370149612426758
			],
			"min":[
				-0.31420040130615234,
				-2.50250244140625,
				-2.8745596408843994
			],
			"type":"VEC3"
		},
		{
			"bufferView":9,
			"componentType":5126,
			"count":76,
			"type":"VEC3"
		},
		{
			"bufferView":10,
			"componentType":5126,
			"count":76,
			"type":"VEC2"
		},
		{
			"bufferView":11,
			"componentType":5123,
			"count":144,
			"type":"SCALAR"
		},
		{
			"bufferView":12,
			"componentType":5126,
			"count":112,
			"max":[
				2.2638916969299316,
				0.17261891067028046,
				0.3704758882522583
			],
			"min":[
				-1.900726556777954,
				-0.673325777053833,
				-0.7381398677825928
			],
			"type":"VEC3"
		},
		{
			"bufferView":13,
			"componentType":5126,
			"count":112,
			"type":"VEC3"
		},
		{
			"bufferView":14,
			"componentType":5126,
			"count":112,
			"type":"VEC2"
		},
		{
			"bufferView":15,
			"componentType":5123,
			"count":540,
			"type":"SCALAR"
		},
		{
			"bufferView":16,
			"componentType":5126,
			"count":105,
			"max":[
				2.5155141353607178,
				0.9469966292381287,
				1.1729527711868286
			],
			"min":[
				-2.4997313022613525,
				-0.4146328568458557,
				-1.2774031162261963
			],
			"type":"VEC3"
		},
		{
			"bufferView":17,
			"componentType":5126,
			"count":105,
			"type":"VEC3"
		},
		{
			"bufferView":18,
			"componentType":5126,
			"count":105,
			"type":"VEC2"
		},
		{
			"bufferView":19,
			"componentType":5123,
			"count":480,
			"type":"SCALAR"
		},
		{
			"bufferView":20,
			"componentType":5126,
			"count":115,
			"max":[
				2.7261874675750732,
				1.0580576658248901,
				1.011427640914917
			],
			"min":[
				-1.35409677028656,
				-0.29106301069259644,
				-1.244471549987793
			],
			"type":"VEC3"
		},
		{
			"bufferView":21,
			"componentType":5126,
			"count":115,
			"type":"VEC3"
		},
		{
			"bufferView":22,
			"componentType":5126,
			"count":115,
			"type":"VEC2"
		},
		{
			"bufferView":23,
			"componentType":5123,
			"count":528,
			"type":"SCALAR"
		},
		{
			"bufferView":24,
			"componentType":5126,
			"count":24,
			"max":[
				1,
				1.0806893110275269,
				1
			],
			"min":[
				-1,
				-1,
				-1
			],
			"type":"VEC3"
		},
		{
			"bufferView":25,
			"componentType":5126,
			"count":24,
			"type":"VEC3"
		},
		{
			"bufferView":26,
			"componentType":5126,
			"count":24,
			"type":"VEC2"
		},
		{
			"bufferView":27,
			"componentType":5126,
			"count":24,
			"max":[
				1,
				1,
				1
			],
			"min":[
				-1,
				-1,
				-1
			],
			"type":"VEC3"
		},
		{
			"bufferView":28,
			"componentType":5126,
			"count":24,
			"type":"VEC3"
		},
		{
			"bufferView":29,
			"componentType":5126,
			"count":24,
			"type":"VEC2"
		},
		{
			"bufferView":30,
			"componentType":5126,
			"count":24,
			"max":[
				1,
				1,
				1
			],
			"min":[
				-1,
				-1,
				-1
			],
			"type":"VEC3"
		},
		{
			"bufferView":31,
			"componentType":5126,
			"count":24,
			"type":"VEC3"
		},
		{
			"bufferView":32,
			"componentType":5126,
			"count":24,
			"type":"VEC2"
		},
		{
			"bufferView":33,
			"componentType":5126,
			"count":24,
			"max":[
				1.1113778352737427,
				0.9999999403953552,
				0.616040050983429
			],
			"min":[
				-0.9999999403953552,
				-0.9999999403953552,
				-0.9981436133384705
			],
			"type":"VEC3"
		},
		{
			"bufferView":34,
			"componentType":5126,
			"count":24,
			"type":"VEC3"
		},
		{
			"bufferView":35,
			"componentType":5126,
			"count":24,
			"type":"VEC2"
		},
		{
			"bufferView":36,
			"componentType":5126,
			"count":5456,
			"max":[
				5.916676044464111,
				0.980780839920044,
				12.955303192138672
			],
			"min":[
				-7.921687602996826,
				-0.9593889713287354,
				-7.755145072937012
			],
			"type":"VEC3"
		},
		{
			"bufferView":37,
			"componentType":5126,
			"count":5456,
			"type":"VEC3"
		},
		{
			"bufferView":38,
			"componentType":5126,
			"count":5456,
			"type":"VEC2"
		},
		{
			"bufferView":39,
			"componentType":5123,
			"count":12384,
			"type":"SCALAR"
		},
		{
			"bufferView":40,
			"componentType":5126,
			"count":24,
			"max":[
				1,
				1,
				1.460192322731018
			],
			"min":[
				-1,
				-1,
				-1
			],
			"type":"VEC3"
		},
		{
			"bufferView":41,
			"componentType":5126,
			"count":24,
			"type":"VEC3"
		},
		{
			"bufferView":42,
			"componentType":5126,
			"count":24,
			"type":"VEC2"
		},
		{
			"bufferView":43,
			"componentType":5126,
			"count":48,
			"max":[
				1,
				0.2536671459674835,
				0.7053483128547668
			],
			"min":[
				-1,
				-0.19781088829040527,
				-1
			],
			"type":"VEC3"
		},
		{
			"bufferView":44,
			"componentType":5126,
			"count":48,
			"type":"VEC3"
		},
		{
			"bufferView":45,
			"componentType":5126,
			"count":48,
			"type":"VEC2"
		},
		{
			"bufferView":46,
			"componentType":5123,
			"count":84,
			"type":"SCALAR"
		},
		{
			"bufferView":47,
			"componentType":5126,
			"count":56,
			"max":[
				0.42988696694374084,
				0.13964997231960297,
				0.2227320671081543
			],
			"min":[
				-0.42988696694374084,
				-0.026004953309893608,
				-0.2227320671081543
			],
			"type":"VEC3"
		},
		{
			"bufferView":48,
			"componentType":5126,
			"count":56,
			"type":"VEC3"
		},
		{
			"bufferView":49,
			"componentType":5126,
			"count":56,
			"type":"VEC2"
		},
		{
			"bufferView":50,
			"componentType":5123,
			"count":84,
			"type":"SCALAR"
		},
		{
			"bufferView":51,
			"componentType":5126,
			"count":155,
			"max":[
				0.7978475093841553,
				2.449826240539551,
				0.33995506167411804
			],
			"min":[
				-0.39236655831336975,
				-2.3398046493530273,
				-1.0079658031463623
			],
			"type":"VEC3"
		},
		{
			"bufferView":52,
			"componentType":5126,
			"count":155,
			"type":"VEC3"
		},
		{
			"bufferView":53,
			"componentType":5126,
			"count":155,
			"type":"VEC2"
		},
		{
			"bufferView":54,
			"componentType":5123,
			"count":720,
			"type":"SCALAR"
		},
		{
			"bufferView":55,
			"componentType":5126,
			"count":155,
			"max":[
				1.5704097747802734,
				4.136422157287598,
				0.036441512405872345
			],
			"min":[
				-1.5525788068771362,
				-2.1750271320343018,
				-0.6223174929618835
			],
			"type":"VEC3"
		},
		{
			"bufferView":56,
			"componentType":5126,
			"count":155,
			"type":"VEC3"
		},
		{
			"bufferView":57,
			"componentType":5126,
			"count":155,
			"type":"VEC2"
		},
		{
			"bufferView":58,
			"componentType":5126,
			"count":56,
			"max":[
				0.1066681295633316,
				0.08690868318080902,
				0.07245868444442749
			],
			"min":[
				-0.1066681295633316,
				-0.08690868318080902,
				-0.12722110748291016
			],
			"type":"VEC3"
		},
		{
			"bufferView":59,
			"componentType":5126,
			"count":56,
			"type":"VEC3"
		},
		{
			"bufferView":60,
			"componentType":5126,
			"count":56,
			"type":"VEC2"
		},
		{
			"bufferView":61,
			"componentType":5123,
			"count":84,
			"type":"SCALAR"
		},
		{
			"bufferView":62,
			"componentType":5126,
			"count":56,
			"max":[
				0.1066681295633316,
				0.08690868318080902,
				0.07245868444442749
			],
			"min":[
				-0.1066681295633316,
				-0.08690868318080902,
				-0.12722110748291016
			],
			"type":"VEC3"
		},
		{
			"bufferView":63,
			"componentType":5126,
			"count":56,
			"type":"VEC3"
		},
		{
			"bufferView":64,
			"componentType":5126,
			"count":56,
			"type":"VEC2"
		},
		{
			"bufferView":65,
			"componentType":5126,
			"count":62301,
			"max":[
				0.3667175769805908,
				0.9359068870544434,
				0.3229186236858368
			],
			"min":[
				-0.3705986738204956,
				-0.9500197172164917,
				-0.3398649990558624
			],
			"type":"VEC3"
		},
		{
			"bufferView":66,
			"componentType":5126,
			"count":62301,
			"type":"VEC3"
		},
		{
			"bufferView":67,
			"componentType":5126,
			"count":62301,
			"type":"VEC2"
		},
		{
			"bufferView":68,
			"componentType":5123,
			"count":150492,
			"type":"SCALAR"
		},
		{
			"bufferView":69,
			"componentType":5126,
			"count":100,
			"max":[
				1.0062488317489624,
				1.2182776927947998,
				2.069866418838501
			],
			"min":[
				-0.9806168675422668,
				-1.0598639249801636,
				-3.669532299041748
			],
			"type":"VEC3"
		},
		{
			"bufferView":70,
			"componentType":5126,
			"count":100,
			"type":"VEC3"
		},
		{
			"bufferView":71,
			"componentType":5126,
			"count":100,
			"type":"VEC2"
		},
		{
			"bufferView":72,
			"componentType":5123,
			"count":162,
			"type":"SCALAR"
		},
		{
			"bufferView":73,
			"componentType":5126,
			"count":1766,
			"max":[
				0.8229147791862488,
				1.0834591388702393,
				0.9807508587837219
			],
			"min":[
				-0.7957592010498047,
				-0.9892463684082031,
				-1.0059232711791992
			],
			"type":"VEC3"
		},
		{
			"bufferView":74,
			"componentType":5126,
			"count":1766,
			"type":"VEC3"
		},
		{
			"bufferView":75,
			"componentType":5126,
			"count":1766,
			"type":"VEC2"
		},
		{
			"bufferView":76,
			"componentType":5123,
			"count":3534,
			"type":"SCALAR"
		},
		{
			"bufferView":77,
			"componentType":5126,
			"count":4,
			"max":[
				0.9651200175285339,
				1.155479907989502,
				1.189104676246643
			],
			"min":[
				-0.9429035782814026,
				-0.9838908314704895,
				1.189104676246643
			],
			"type":"VEC3"
		},
		{
			"bufferView":78,
			"componentType":5126,
			"count":4,
			"type":"VEC3"
		},
		{
			"bufferView":79,
			"componentType":5126,
			"count":4,
			"type":"VEC2"
		},
		{
			"bufferView":80,
			"componentType":5123,
			"count":6,
			"type":"SCALAR"
		},
		{
			"bufferView":81,
			"componentType":5126,
			"count":88,
			"max":[
				1.0395182371139526,
				1,
				1
			],
			"min":[
				-1.0395182371139526,
				-44.86125183105469,
				-1
			],
			"type":"VEC3"
		},
		{
			"bufferView":82,
			"componentType":5126,
			"count":88,
			"type":"VEC3"
		},
		{
			"bufferView":83,
			"componentType":5126,
			"count":88,
			"type":"VEC2"
		},
		{
			"bufferView":84,
			"componentType":5123,
			"count":132,
			"type":"SCALAR"
		},
		{
			"bufferView":85,
			"componentType":5126,
			"count":202,
			"max":[
				1.2085106372833252,
				5.684341886080802e-14,
				1.2085106372833252
			],
			"min":[
				-1.2085108757019043,
				-2.287193536758423,
				-1.2085106372833252
			],
			"type":"VEC3"
		},
		{
			"bufferView":86,
			"componentType":5126,
			"count":202,
			"type":"VEC3"
		},
		{
			"bufferView":87,
			"componentType":5126,
			"count":202,
			"type":"VEC2"
		},
		{
			"bufferView":88,
			"componentType":5123,
			"count":396,
			"type":"SCALAR"
		},
		{
			"bufferView":89,
			"componentType":5126,
			"count":167,
			"max":[
				9.363982200622559,
				6.215648651123047,
				1.4704279899597168
			],
			"min":[
				6.489588737487793,
				5.191946029663086,
				-1.4827601909637451
			],
			"type":"VEC3"
		},
		{
			"bufferView":90,
			"componentType":5126,
			"count":167,
			"type":"VEC3"
		},
		{
			"bufferView":91,
			"componentType":5126,
			"count":167,
			"type":"VEC2"
		},
		{
			"bufferView":92,
			"componentType":5123,
			"count":408,
			"type":"SCALAR"
		},
		{
			"bufferView":93,
			"componentType":5126,
			"count":332,
			"max":[
				8.035140991210938,
				5.449230194091797,
				0.3043728470802307
			],
			"min":[
				0.29105329513549805,
				-2.1343603134155273,
				-0.3166854679584503
			],
			"type":"VEC3"
		},
		{
			"bufferView":94,
			"componentType":5126,
			"count":332,
			"type":"VEC3"
		},
		{
			"bufferView":95,
			"componentType":5126,
			"count":332,
			"type":"VEC2"
		},
		{
			"bufferView":96,
			"componentType":5123,
			"count":636,
			"type":"SCALAR"
		},
		{
			"bufferView":97,
			"componentType":5126,
			"count":32,
			"max":[
				1.0969804525375366,
				-0.13001158833503723,
				1.102334976196289
			],
			"min":[
				-1.1216773986816406,
				-0.130011647939682,
				-1.1163225173950195
			],
			"type":"VEC3"
		},
		{
			"bufferView":98,
			"componentType":5126,
			"count":32,
			"type":"VEC3"
		},
		{
			"bufferView":99,
			"componentType":5126,
			"count":32,
			"type":"VEC2"
		},
		{
			"bufferView":100,
			"componentType":5123,
			"count":90,
			"type":"SCALAR"
		},
		{
			"bufferView":101,
			"componentType":5126,
			"count":192,
			"max":[
				1,
				1,
				1
			],
			"min":[
				-1,
				-2.2887110710144043,
				-1
			],
			"type":"VEC3"
		},
		{
			"bufferView":102,
			"componentType":5126,
			"count":192,
			"type":"VEC3"
		},
		{
			"bufferView":103,
			"componentType":5126,
			"count":192,
			"type":"VEC2"
		},
		{
			"bufferView":104,
			"componentType":5123,
			"count":372,
			"type":"SCALAR"
		},
		{
			"bufferView":105,
			"componentType":5126,
			"count":384,
			"max":[
				1,
				1,
				1
			],
			"min":[
				-1,
				-1,
				-1
			],
			"type":"VEC3"
		},
		{
			"bufferView":106,
			"componentType":5126,
			"count":384,
			"type":"VEC3"
		},
		{
			"bufferView":107,
			"componentType":5126,
			"count":384,
			"type":"VEC2"
		},
		{
			"bufferView":108,
			"componentType":5123,
			"count":756,
			"type":"SCALAR"
		},
		{
			"bufferView":109,
			"componentType":5126,
			"count":905,
			"max":[
				1.0000001192092896,
				3.20238995552063,
				0.8751257658004761
			],
			"min":[
				-1.0000001192092896,
				-0.030000004917383194,
				-1.2767711877822876
			],
			"type":"VEC3"
		},
		{
			"bufferView":110,
			"componentType":5126,
			"count":905,
			"type":"VEC3"
		},
		{
			"bufferView":111,
			"componentType":5126,
			"count":905,
			"type":"VEC2"
		},
		{
			"bufferView":112,
			"componentType":5123,
			"count":4311,
			"type":"SCALAR"
		},
		{
			"bufferView":113,
			"componentType":5126,
			"count":48,
			"max":[
				1,
				1,
				1
			],
			"min":[
				-1,
				-1,
				-1
			],
			"type":"VEC3"
		},
		{
			"bufferView":114,
			"componentType":5126,
			"count":48,
			"type":"VEC3"
		},
		{
			"bufferView":115,
			"componentType":5126,
			"count":48,
			"type":"VEC2"
		},
		{
			"bufferView":116,
			"componentType":5123,
			"count":84,
			"type":"SCALAR"
		},
		{
			"bufferView":117,
			"componentType":5126,
			"count":44,
			"max":[
				1,
				1,
				1
			],
			"min":[
				-1,
				-1,
				-1
			],
			"type":"VEC3"
		},
		{
			"bufferView":118,
			"componentType":5126,
			"count":44,
			"type":"VEC3"
		},
		{
			"bufferView":119,
			"componentType":5126,
			"count":44,
			"type":"VEC2"
		},
		{
			"bufferView":120,
			"componentType":5123,
			"count":90,
			"type":"SCALAR"
		},
		{
			"bufferView":121,
			"componentType":5126,
			"count":40,
			"max":[
				1.0079307556152344,
				2.162407159805298,
				1.2070646286010742
			],
			"min":[
				-1,
				-1,
				-1.018514633178711
			],
			"type":"VEC3"
		},
		{
			"bufferView":122,
			"componentType":5126,
			"count":40,
			"type":"VEC3"
		},
		{
			"bufferView":123,
			"componentType":5126,
			"count":40,
			"type":"VEC2"
		},
		{
			"bufferView":124,
			"componentType":5123,
			"count":60,
			"type":"SCALAR"
		},
		{
			"bufferView":125,
			"componentType":5126,
			"count":95,
			"max":[
				0.937110185623169,
				4.476387023925781,
				1.0324639081954956
			],
			"min":[
				0.8570529818534851,
				4.18764066696167,
				0.9086328744888306
			],
			"type":"VEC3"
		},
		{
			"bufferView":126,
			"componentType":5126,
			"count":95,
			"type":"VEC3"
		},
		{
			"bufferView":127,
			"componentType":5126,
			"count":95,
			"type":"VEC2"
		},
		{
			"bufferView":128,
			"componentType":5123,
			"count":432,
			"type":"SCALAR"
		},
		{
			"bufferView":129,
			"componentType":5126,
			"count":72,
			"max":[
				1,
				1,
				1
			],
			"min":[
				-1,
				-1,
				-1
			],
			"type":"VEC3"
		},
		{
			"bufferView":130,
			"componentType":5126,
			"count":72,
			"type":"VEC3"
		},
		{
			"bufferView":131,
			"componentType":5126,
			"count":72,
			"type":"VEC2"
		},
		{
			"bufferView":132,
			"componentType":5123,
			"count":132,
			"type":"SCALAR"
		},
		{
			"bufferView":133,
			"componentType":5126,
			"count":24,
			"max":[
				1,
				3.9583327770233154,
				1
			],
			"min":[
				-1,
				-1,
				-1
			],
			"type":"VEC3"
		},
		{
			"bufferView":134,
			"componentType":5126,
			"count":24,
			"type":"VEC3"
		},
		{
			"bufferView":135,
			"componentType":5126,
			"count":24,
			"type":"VEC2"
		},
		{
			"bufferView":136,
			"componentType":5126,
			"count":2204,
			"max":[
				0.013880107551813126,
				0.0008999999845400453,
				0.004304395988583565
			],
			"min":[
				-0.019705023616552353,
				-0.0008999999845400453,
				-0.0049410113133490086
			],
			"type":"VEC3"
		},
		{
			"bufferView":137,
			"componentType":5126,
			"count":2204,
			"type":"VEC3"
		},
		{
			"bufferView":138,
			"componentType":5126,
			"count":2204,
			"type":"VEC2"
		},
		{
			"bufferView":139,
			"componentType":5123,
			"count":6528,
			"type":"SCALAR"
		},
		{
			"bufferView":140,
			"componentType":5126,
			"count":150,
			"max":[
				0.0015177568420767784,
				0.0008999999845400453,
				0.0012984862551093102
			],
			"min":[
				-0.0020176293328404427,
				-0.0008999999845400453,
				-0.0022042025811970234
			],
			"type":"VEC3"
		},
		{
			"bufferView":141,
			"componentType":5126,
			"count":150,
			"type":"VEC3"
		},
		{
			"bufferView":142,
			"componentType":5126,
			"count":150,
			"type":"VEC2"
		},
		{
			"bufferView":143,
			"componentType":5123,
			"count":432,
			"type":"SCALAR"
		}
	],
	"bufferViews":[
		{
			"buffer":0,
			"byteLength":288,
			"byteOffset":0,
			"target":34962
		},
		{
			"buffer":0,
			"byteLength":288,
			"byteOffset":288,
			"target":34962
		},
		{
			"buffer":0,
			"byteLength":192,
			"byteOffset":576,
			"target":34962
		},
		{
			"buffer":0,
			"byteLength":72,
			"byteOffset":768,
			"target":34963
		},
		{
			"buffer":0,
			"byteLength":384,
			"byteOffset":840,
			"target":34962
		},
		{
			"buffer":0,
			"byteLength":384,
			"byteOffset":1224,
			"target":34962
		},
		{
			"buffer":0,
			"byteLength":256,
			"byteOffset":1608,
			"target":34962
		},
		{
			"buffer":0,
			"byteLength":120,
			"byteOffset":1864,
			"target":34963
		},
		{
			"buffer":0,
			"byteLength":912,
			"byteOffset":1984,
			"target":34962
		},
		{
			"buffer":0,
			"byteLength":912,
			"byteOffset":2896,
			"target":34962
		},
		{
			"buffer":0,
			"byteLength":608,
			"byteOffset":3808,
			"target":34962
		},
		{
			"buffer":0,
			"byteLength":288,
			"byteOffset":4416,
			"target":34963
		},
		{
			"buffer":0,
			"byteLength":1344,
			"byteOffset":4704,
			"target":34962
		},
		{
			"buffer":0,
			"byteLength":1344,
			"byteOffset":6048,
			"target":34962
		},
		{
			"buffer":0,
			"byteLength":896,
			"byteOffset":7392,
			"target":34962
		},
		{
			"buffer":0,
			"byteLength":1080,
			"byteOffset":8288,
			"target":34963
		},
		{
			"buffer":0,
			"byteLength":1260,
			"byteOffset":9368,
			"target":34962
		},
		{
			"buffer":0,
			"byteLength":1260,
			"byteOffset":10628,
			"target":34962
		},
		{
			"buffer":0,
			"byteLength":840,
			"byteOffset":11888,
			"target":34962
		},
		{
			"buffer":0,
			"byteLength":960,
			"byteOffset":12728,
			"target":34963
		},
		{
			"buffer":0,
			"byteLength":1380,
			"byteOffset":13688,
			"target":34962
		},
		{
			"buffer":0,
			"byteLength":1380,
			"byteOffset":15068,
			"target":34962
		},
		{
			"buffer":0,
			"byteLength":920,
			"byteOffset":16448,
			"target":34962
		},
		{
			"buffer":0,
			"byteLength":1056,
			"byteOffset":17368,
			"target":34963
		},
		{
			"buffer":0,
			"byteLength":288,
			"byteOffset":18424,
			"target":34962
		},
		{
			"buffer":0,
			"byteLength":288,
			"byteOffset":18712,
			"target":34962
		},
		{
			"buffer":0,
			"byteLength":192,
			"byteOffset":19000,
			"target":34962
		},
		{
			"buffer":0,
			"byteLength":288,
			"byteOffset":19192,
			"target":34962
		},
		{
			"buffer":0,
			"byteLength":288,
			"byteOffset":19480,
			"target":34962
		},
		{
			"buffer":0,
			"byteLength":192,
			"byteOffset":19768,
			"target":34962
		},
		{
			"buffer":0,
			"byteLength":288,
			"byteOffset":19960,
			"target":34962
		},
		{
			"buffer":0,
			"byteLength":288,
			"byteOffset":20248,
			"target":34962
		},
		{
			"buffer":0,
			"byteLength":192,
			"byteOffset":20536,
			"target":34962
		},
		{
			"buffer":0,
			"byteLength":288,
			"byteOffset":20728,
			"target":34962
		},
		{
			"buffer":0,
			"byteLength":288,
			"byteOffset":21016,
			"target":34962
		},
		{
			"buffer":0,
			"byteLength":192,
			"byteOffset":21304,
			"target":34962
		},
		{
			"buffer":0,
			"byteLength":65472,
			"byteOffset":21496,
			"target":34962
		},
		{
			"buffer":0,
			"byteLength":65472,
			"byteOffset":86968,
			"target":34962
		},
		{
			"buffer":0,
			"byteLength":43648,
			"byteOffset":152440,
			"target":34962
		},
		{
			"buffer":0,
			"byteLength":24768,
			"byteOffset":196088,
			"target":34963
		},
		{
			"buffer":0,
			"byteLength":288,
			"byteOffset":220856,
			"target":34962
		},
		{
			"buffer":0,
			"byteLength":288,
			"byteOffset":221144,
			"target":34962
		},
		{
			"buffer":0,
			"byteLength":192,
			"byteOffset":221432,
			"target":34962
		},
		{
			"buffer":0,
			"byteLength":576,
			"byteOffset":221624,
			"target":34962
		},
		{
			"buffer":0,
			"byteLength":576,
			"byteOffset":222200,
			"target":34962
		},
		{
			"buffer":0,
			"byteLength":384,
			"byteOffset":222776,
			"target":34962
		},
		{
			"buffer":0,
			"byteLength":168,
			"byteOffset":223160,
			"target":34963
		},
		{
			"buffer":0,
			"byteLength":672,
			"byteOffset":223328,
			"target":34962
		},
		{
			"buffer":0,
			"byteLength":672,
			"byteOffset":224000,
			"target":34962
		},
		{
			"buffer":0,
			"byteLength":448,
			"byteOffset":224672,
			"target":34962
		},
		{
			"buffer":0,
			"byteLength":168,
			"byteOffset":225120,
			"target":34963
		},
		{
			"buffer":0,
			"byteLength":1860,
			"byteOffset":225288,
			"target":34962
		},
		{
			"buffer":0,
			"byteLength":1860,
			"byteOffset":227148,
			"target":34962
		},
		{
			"buffer":0,
			"byteLength":1240,
			"byteOffset":229008,
			"target":34962
		},
		{
			"buffer":0,
			"byteLength":1440,
			"byteOffset":230248,
			"target":34963
		},
		{
			"buffer":0,
			"byteLength":1860,
			"byteOffset":231688,
			"target":34962
		},
		{
			"buffer":0,
			"byteLength":1860,
			"byteOffset":233548,
			"target":34962
		},
		{
			"buffer":0,
			"byteLength":1240,
			"byteOffset":235408,
			"target":34962
		},
		{
			"buffer":0,
			"byteLength":672,
			"byteOffset":236648,
			"target":34962
		},
		{
			"buffer":0,
			"byteLength":672,
			"byteOffset":237320,
			"target":34962
		},
		{
			"buffer":0,
			"byteLength":448,
			"byteOffset":237992,
			"target":34962
		},
		{
			"buffer":0,
			"byteLength":168,
			"byteOffset":238440,
			"target":34963
		},
		{
			"buffer":0,
			"byteLength":672,
			"byteOffset":238608,
			"target":34962
		},
		{
			"buffer":0,
			"byteLength":672,
			"byteOffset":239280,
			"target":34962
		},
		{
			"buffer":0,
			"byteLength":448,
			"byteOffset":239952,
			"target":34962
		},
		{
			"buffer":0,
			"byteLength":747612,
			"byteOffset":240400,
			"target":34962
		},
		{
			"buffer":0,
			"byteLength":747612,
			"byteOffset":988012,
			"target":34962
		},
		{
			"buffer":0,
			"byteLength":498408,
			"byteOffset":1735624,
			"target":34962
		},
		{
			"buffer":0,
			"byteLength":300984,
			"byteOffset":2234032,
			"target":34963
		},
		{
			"buffer":0,
			"byteLength":1200,
			"byteOffset":2535016,
			"target":34962
		},
		{
			"buffer":0,
			"byteLength":1200,
			"byteOffset":2536216,
			"target":34962
		},
		{
			"buffer":0,
			"byteLength":800,
			"byteOffset":2537416,
			"target":34962
		},
		{
			"buffer":0,
			"byteLength":324,
			"byteOffset":2538216,
			"target":34963
		},
		{
			"buffer":0,
			"byteLength":21192,
			"byteOffset":2538540,
			"target":34962
		},
		{
			"buffer":0,
			"byteLength":21192,
			"byteOffset":2559732,
			"target":34962
		},
		{
			"buffer":0,
			"byteLength":14128,
			"byteOffset":2580924,
			"target":34962
		},
		{
			"buffer":0,
			"byteLength":7068,
			"byteOffset":2595052,
			"target":34963
		},
		{
			"buffer":0,
			"byteLength":48,
			"byteOffset":2602120,
			"target":34962
		},
		{
			"buffer":0,
			"byteLength":48,
			"byteOffset":2602168,
			"target":34962
		},
		{
			"buffer":0,
			"byteLength":32,
			"byteOffset":2602216,
			"target":34962
		},
		{
			"buffer":0,
			"byteLength":12,
			"byteOffset":2602248,
			"target":34963
		},
		{
			"buffer":0,
			"byteLength":1056,
			"byteOffset":2602260,
			"target":34962
		},
		{
			"buffer":0,
			"byteLength":1056,
			"byteOffset":2603316,
			"target":34962
		},
		{
			"buffer":0,
			"byteLength":704,
			"byteOffset":2604372,
			"target":34962
		},
		{
			"buffer":0,
			"byteLength":264,
			"byteOffset":2605076,
			"target":34963
		},
		{
			"buffer":0,
			"byteLength":2424,
			"byteOffset":2605340,
			"target":34962
		},
		{
			"buffer":0,
			"byteLength":2424,
			"byteOffset":2607764,
			"target":34962
		},
		{
			"buffer":0,
			"byteLength":1616,
			"byteOffset":2610188,
			"target":34962
		},
		{
			"buffer":0,
			"byteLength":792,
			"byteOffset":2611804,
			"target":34963
		},
		{
			"buffer":0,
			"byteLength":2004,
			"byteOffset":2612596,
			"target":34962
		},
		{
			"buffer":0,
			"byteLength":2004,
			"byteOffset":2614600,
			"target":34962
		},
		{
			"buffer":0,
			"byteLength":1336,
			"byteOffset":2616604,
			"target":34962
		},
		{
			"buffer":0,
			"byteLength":816,
			"byteOffset":2617940,
			"target":34963
		},
		{
			"buffer":0,
			"byteLength":3984,
			"byteOffset":2618756,
			"target":34962
		},
		{
			"buffer":0,
			"byteLength":3984,
			"byteOffset":2622740,
			"target":34962
		},
		{
			"buffer":0,
			"byteLength":2656,
			"byteOffset":2626724,
			"target":34962
		},
		{
			"buffer":0,
			"byteLength":1272,
			"byteOffset":2629380,
			"target":34963
		},
		{
			"buffer":0,
			"byteLength":384,
			"byteOffset":2630652,
			"target":34962
		},
		{
			"buffer":0,
			"byteLength":384,
			"byteOffset":2631036,
			"target":34962
		},
		{
			"buffer":0,
			"byteLength":256,
			"byteOffset":2631420,
			"target":34962
		},
		{
			"buffer":0,
			"byteLength":180,
			"byteOffset":2631676,
			"target":34963
		},
		{
			"buffer":0,
			"byteLength":2304,
			"byteOffset":2631856,
			"target":34962
		},
		{
			"buffer":0,
			"byteLength":2304,
			"byteOffset":2634160,
			"target":34962
		},
		{
			"buffer":0,
			"byteLength":1536,
			"byteOffset":2636464,
			"target":34962
		},
		{
			"buffer":0,
			"byteLength":744,
			"byteOffset":2638000,
			"target":34963
		},
		{
			"buffer":0,
			"byteLength":4608,
			"byteOffset":2638744,
			"target":34962
		},
		{
			"buffer":0,
			"byteLength":4608,
			"byteOffset":2643352,
			"target":34962
		},
		{
			"buffer":0,
			"byteLength":3072,
			"byteOffset":2647960,
			"target":34962
		},
		{
			"buffer":0,
			"byteLength":1512,
			"byteOffset":2651032,
			"target":34963
		},
		{
			"buffer":0,
			"byteLength":10860,
			"byteOffset":2652544,
			"target":34962
		},
		{
			"buffer":0,
			"byteLength":10860,
			"byteOffset":2663404,
			"target":34962
		},
		{
			"buffer":0,
			"byteLength":7240,
			"byteOffset":2674264,
			"target":34962
		},
		{
			"buffer":0,
			"byteLength":8622,
			"byteOffset":2681504,
			"target":34963
		},
		{
			"buffer":0,
			"byteLength":576,
			"byteOffset":2690128,
			"target":34962
		},
		{
			"buffer":0,
			"byteLength":576,
			"byteOffset":2690704,
			"target":34962
		},
		{
			"buffer":0,
			"byteLength":384,
			"byteOffset":2691280,
			"target":34962
		},
		{
			"buffer":0,
			"byteLength":168,
			"byteOffset":2691664,
			"target":34963
		},
		{
			"buffer":0,
			"byteLength":528,
			"byteOffset":2691832,
			"target":34962
		},
		{
			"buffer":0,
			"byteLength":528,
			"byteOffset":2692360,
			"target":34962
		},
		{
			"buffer":0,
			"byteLength":352,
			"byteOffset":2692888,
			"target":34962
		},
		{
			"buffer":0,
			"byteLength":180,
			"byteOffset":2693240,
			"target":34963
		},
		{
			"buffer":0,
			"byteLength":480,
			"byteOffset":2693420,
			"target":34962
		},
		{
			"buffer":0,
			"byteLength":480,
			"byteOffset":2693900,
			"target":34962
		},
		{
			"buffer":0,
			"byteLength":320,
			"byteOffset":2694380,
			"target":34962
		},
		{
			"buffer":0,
			"byteLength":120,
			"byteOffset":2694700,
			"target":34963
		},
		{
			"buffer":0,
			"byteLength":1140,
			"byteOffset":2694820,
			"target":34962
		},
		{
			"buffer":0,
			"byteLength":1140,
			"byteOffset":2695960,
			"target":34962
		},
		{
			"buffer":0,
			"byteLength":760,
			"byteOffset":2697100,
			"target":34962
		},
		{
			"buffer":0,
			"byteLength":864,
			"byteOffset":2697860,
			"target":34963
		},
		{
			"buffer":0,
			"byteLength":864,
			"byteOffset":2698724,
			"target":34962
		},
		{
			"buffer":0,
			"byteLength":864,
			"byteOffset":2699588,
			"target":34962
		},
		{
			"buffer":0,
			"byteLength":576,
			"byteOffset":2700452,
			"target":34962
		},
		{
			"buffer":0,
			"byteLength":264,
			"byteOffset":2701028,
			"target":34963
		},
		{
			"buffer":0,
			"byteLength":288,
			"byteOffset":2701292,
			"target":34962
		},
		{
			"buffer":0,
			"byteLength":288,
			"byteOffset":2701580,
			"target":34962
		},
		{
			"buffer":0,
			"byteLength":192,
			"byteOffset":2701868,
			"target":34962
		},
		{
			"buffer":0,
			"byteLength":26448,
			"byteOffset":2702060,
			"target":34962
		},
		{
			"buffer":0,
			"byteLength":26448,
			"byteOffset":2728508,
			"target":34962
		},
		{
			"buffer":0,
			"byteLength":17632,
			"byteOffset":2754956,
			"target":34962
		},
		{
			"buffer":0,
			"byteLength":13056,
			"byteOffset":2772588,
			"target":34963
		},
		{
			"buffer":0,
			"byteLength":1800,
			"byteOffset":2785644,
			"target":34962
		},
		{
			"buffer":0,
			"byteLength":1800,
			"byteOffset":2787444,
			"target":34962
		},
		{
			"buffer":0,
			"byteLength":1200,
			"byteOffset":2789244,
			"target":34962
		},
		{
			"buffer":0,
			"byteLength":864,
			"byteOffset":2790444,
			"target":34963
		}
	],
	"samplers":[
		{
			"magFilter":9729,
			"minFilter":9987
		},
		{
			"magFilter":9728,
			"minFilter":9984
		}
	],
	"buffers":[
		{
			"byteLength":2791308,
			"uri":"MySetup.bin"
		}
	]
}
